<svg width="512" height="512" viewBox="0 0 512 512" fill="none" xmlns="http://www.w3.org/2000/svg">
<path d="M208 408H304V456H208V408Z" fill="#7A7A7A"/>
<path d="M40 88H472C476.243 88 480.313 89.6857 483.314 92.6863C486.314 95.6869 488 99.7565 488 104V360H24V104C24 99.7565 25.6857 95.6869 28.6863 92.6863C31.6869 89.6857 35.7565 88 40 88Z" fill="#7A7A7A"/>
<path d="M48 112H464V336H48V112Z" fill="#C0C0C0"/>
<path d="M432 112C432 171.408 408.4 228.384 366.392 270.392C324.384 312.4 267.408 336 208 336H464V112H432Z" fill="#C0C0C0"/>
<path d="M208 408H304V432H208V408Z" fill="#7A7A7A"/>
<path d="M24 360V392C24.0127 396.24 25.7024 400.302 28.7003 403.3C31.6981 406.298 35.7604 407.987 40 408H472C476.24 407.987 480.302 406.298 483.3 403.3C486.298 400.302 487.987 396.24 488 392V360H24Z" fill="#A2A2A2"/>
<path d="M168 456C163.757 456 159.687 457.686 156.686 460.686C153.686 463.687 152 467.757 152 472V488H360V472C360 467.757 358.314 463.687 355.314 460.686C352.313 457.686 348.243 456 344 456H168Z" fill="#7A7A7A"/>
<path d="M400 64C404.418 64 408 60.4183 408 56C408 51.5817 404.418 48 400 48C395.582 48 392 51.5817 392 56C392 60.4183 395.582 64 400 64Z" fill="#C0C0C0"/>
<path d="M366.056 66.7439C364.937 65.6248 363.512 64.8627 361.96 64.5538C360.408 64.2449 358.799 64.4032 357.337 65.0086C355.875 65.6141 354.626 66.6394 353.747 67.9551C352.868 69.2707 352.398 70.8176 352.398 72.3999C352.398 73.9823 352.868 75.5291 353.747 76.8447C354.626 78.1604 355.875 79.1857 357.337 79.7912C358.799 80.3966 360.408 80.5549 361.96 80.246C363.512 79.9371 364.937 79.175 366.056 78.0559C367.556 76.5557 368.398 74.5212 368.398 72.3999C368.398 70.2786 367.556 68.2441 366.056 66.7439Z" fill="#C0C0C0"/>
<path d="M344 120C348.418 120 352 116.418 352 112C352 107.582 348.418 104 344 104C339.582 104 336 107.582 336 112C336 116.418 339.582 120 344 120Z" fill="#C0C0C0"/>
<path d="M354.744 145.944C353.625 147.063 352.863 148.488 352.554 150.04C352.245 151.592 352.403 153.201 353.009 154.662C353.614 156.124 354.64 157.374 355.955 158.253C357.271 159.132 358.818 159.602 360.4 159.602C361.982 159.602 363.529 159.132 364.845 158.253C366.16 157.374 367.186 156.124 367.791 154.662C368.397 153.201 368.555 151.592 368.246 150.04C367.937 148.488 367.175 147.063 366.056 145.944C364.556 144.444 362.521 143.602 360.4 143.602C358.279 143.602 356.244 144.444 354.744 145.944Z" fill="#C0C0C0"/>
<path d="M400 176C404.418 176 408 172.418 408 168C408 163.582 404.418 160 400 160C395.582 160 392 163.582 392 168C392 172.418 395.582 176 400 176Z" fill="#C0C0C0"/>
<path d="M433.944 157.256C435.063 158.375 436.488 159.137 438.04 159.446C439.592 159.755 441.201 159.597 442.663 158.991C444.125 158.386 445.374 157.361 446.253 156.045C447.132 154.729 447.602 153.182 447.602 151.6C447.602 150.018 447.132 148.471 446.253 147.155C445.374 145.84 444.125 144.814 442.663 144.209C441.201 143.603 439.592 143.445 438.04 143.754C436.488 144.063 435.063 144.825 433.944 145.944C432.444 147.444 431.602 149.479 431.602 151.6C431.602 153.721 432.444 155.756 433.944 157.256Z" fill="#C0C0C0"/>
<path d="M456 120C460.418 120 464 116.418 464 112C464 107.582 460.418 104 456 104C451.582 104 448 107.582 448 112C448 116.418 451.582 120 456 120Z" fill="#C0C0C0"/>
<path d="M445.256 78.0561C446.375 76.9374 447.137 75.512 447.446 73.96C447.755 72.4081 447.597 70.7995 446.991 69.3375C446.386 67.8756 445.36 66.626 444.045 65.7468C442.729 64.8677 441.182 64.3984 439.6 64.3984C438.018 64.3984 436.471 64.8677 435.155 65.7468C433.84 66.626 432.814 67.8756 432.209 69.3375C431.603 70.7995 431.445 72.4081 431.754 73.96C432.063 75.512 432.825 76.9374 433.944 78.0561C435.444 79.5559 437.479 80.3984 439.6 80.3984C441.721 80.3984 443.756 79.5559 445.256 78.0561Z" fill="#C0C0C0"/>
<path d="M400 200C448.601 200 488 160.601 488 112C488 63.3989 448.601 24 400 24C351.399 24 312 63.3989 312 112C312 160.601 351.399 200 400 200Z" fill="#D7D7D7"/>
<path d="M400 24C394.632 24.0206 389.276 24.5294 384 25.52C404.217 29.2454 422.49 39.9365 435.644 55.7354C448.798 71.5342 456 91.4422 456 112C456 132.558 448.798 152.466 435.644 168.265C422.49 184.063 404.217 194.754 384 198.48C396.046 200.748 408.433 200.475 420.367 197.677C432.301 194.879 443.519 189.619 453.302 182.234C463.085 174.849 471.218 165.502 477.178 154.791C483.139 144.08 486.796 132.242 487.915 120.035C489.035 107.829 487.591 95.5234 483.678 83.9071C479.765 72.2908 473.469 61.6202 465.192 52.5789C456.915 43.5376 446.841 36.3252 435.615 31.4038C424.388 26.4824 412.258 23.9606 400 24Z" fill="#CECECE"/>
<path d="M400 136C413.255 136 424 125.255 424 112C424 98.7452 413.255 88 400 88C386.745 88 376 98.7452 376 112C376 125.255 386.745 136 400 136Z" fill="#A1A1A1"/>
<path d="M264 376H248C245.878 376 243.843 376.843 242.343 378.343C240.843 379.843 240 381.878 240 384C240 386.122 240.843 388.157 242.343 389.657C243.843 391.157 245.878 392 248 392H264C266.122 392 268.157 391.157 269.657 389.657C271.157 388.157 272 386.122 272 384C272 381.878 271.157 379.843 269.657 378.343C268.157 376.843 266.122 376 264 376Z" fill="#E8E8E8"/>
<path d="M88 304C86.418 304 84.8716 303.53 83.5563 302.651C82.2411 301.772 81.2159 300.523 80.6106 299.061C80.0052 297.6 79.8468 295.991 80.1553 294.44C80.4639 292.888 81.2255 291.463 82.344 290.344L122.344 250.344C123.328 249.359 124.553 248.647 125.896 248.28L211.32 224.984L265.72 155.088C266.356 154.233 267.156 153.514 268.073 152.972C268.991 152.431 270.007 152.078 271.063 151.934C272.118 151.791 273.192 151.86 274.221 152.137C275.249 152.414 276.212 152.893 277.053 153.548C277.894 154.202 278.596 155.018 279.117 155.947C279.638 156.876 279.969 157.9 280.089 158.958C280.209 160.017 280.117 161.089 279.817 162.111C279.517 163.134 279.017 164.086 278.344 164.912L222.344 236.912C221.282 238.279 219.805 239.264 218.136 239.72L132.16 263.2L93.656 301.696C92.1495 303.182 90.1158 304.01 88 304Z" fill="#D7D7D7"/>
<path d="M357.776 120H369.136C369.879 122.864 371.023 125.609 372.536 128.152L364.488 136.2C361.086 135.286 357.478 135.519 354.223 136.865C350.968 138.21 348.248 140.592 346.484 143.641C344.721 146.69 344.013 150.236 344.47 153.728C344.927 157.221 346.524 160.465 349.013 162.957C351.502 165.449 354.744 167.051 358.235 167.513C361.727 167.975 365.274 167.272 368.325 165.513C371.377 163.754 373.763 161.037 375.113 157.784C376.463 154.53 376.702 150.923 375.792 147.52L383.848 139.464C386.391 140.977 389.136 142.121 392 142.864V154.224C388.95 155.985 386.566 158.703 385.218 161.957C383.87 165.211 383.634 168.819 384.545 172.221C385.457 175.623 387.466 178.63 390.26 180.774C393.054 182.918 396.478 184.08 400 184.08C403.522 184.08 406.946 182.918 409.74 180.774C412.534 178.63 414.543 175.623 415.455 172.221C416.366 168.819 416.13 165.211 414.782 161.957C413.434 158.703 411.05 155.985 408 154.224V142.864C410.864 142.121 413.609 140.977 416.152 139.464L424.2 147.52C423.478 150.216 423.473 153.055 424.188 155.754C424.902 158.453 426.31 160.918 428.272 162.904C430.252 164.901 432.724 166.342 435.438 167.08C438.152 167.818 441.012 167.827 443.731 167.108C446.45 166.388 448.931 164.964 450.924 162.979C452.918 160.995 454.353 158.52 455.085 155.805C455.817 153.089 455.82 150.228 455.094 147.511C454.368 144.794 452.938 142.316 450.95 140.327C448.961 138.338 446.483 136.909 443.766 136.183C441.048 135.457 438.188 135.46 435.472 136.192L427.424 128.144C428.95 125.605 430.108 122.864 430.864 120H442.224C443.985 123.05 446.703 125.434 449.957 126.782C453.212 128.13 456.819 128.366 460.221 127.455C463.624 126.543 466.63 124.534 468.774 121.74C470.918 118.946 472.08 115.522 472.08 112C472.08 108.478 470.918 105.054 468.774 102.26C466.63 99.4654 463.624 97.4566 460.221 96.545C456.819 95.6334 453.212 95.8699 449.957 97.2178C446.703 98.5656 443.985 100.95 442.224 104H430.864C430.121 101.136 428.977 98.3909 427.464 95.8478L435.512 87.7998C436.841 88.171 438.212 88.3699 439.592 88.3918C442.949 88.4174 446.23 87.3892 448.973 85.4521C451.715 83.515 453.781 80.7665 454.879 77.5937C455.977 74.4209 456.053 70.9835 455.095 67.7655C454.137 64.5475 452.194 61.7111 449.539 59.6555C446.884 57.5999 443.652 56.4287 440.296 56.3069C436.941 56.185 433.632 57.1186 430.835 58.9762C428.038 60.8338 425.895 63.5219 424.706 66.6619C423.517 69.8019 423.343 73.2357 424.208 76.4798L416.152 84.5358C413.609 83.0231 410.864 81.8784 408 81.1358V69.7758C411.05 68.0148 413.434 65.2964 414.782 62.0424C416.13 58.7883 416.366 55.1805 415.455 51.7783C414.543 48.3762 412.534 45.3699 409.74 43.2258C406.946 41.0816 403.522 39.9194 400 39.9194C396.478 39.9194 393.054 41.0816 390.26 43.2258C387.466 45.3699 385.457 48.3762 384.545 51.7783C383.634 55.1805 383.87 58.7883 385.218 62.0424C386.566 65.2964 388.95 68.0148 392 69.7758V81.1358C389.136 81.8784 386.391 83.0231 383.848 84.5358L375.8 76.4798C376.522 73.7832 376.527 70.9445 375.812 68.2457C375.098 65.5469 373.69 63.082 371.728 61.0958C369.869 59.2332 367.578 57.858 365.06 57.0922C362.542 56.3263 359.874 56.1935 357.292 56.7054C354.711 57.2174 352.295 58.3583 350.26 60.027C348.225 61.6958 346.632 63.8409 345.624 66.2721C344.616 68.7034 344.224 71.3458 344.481 73.9651C344.739 76.5844 345.638 79.0998 347.101 81.2882C348.563 83.4767 350.542 85.2707 352.863 86.5112C355.185 87.7517 357.776 88.4004 360.408 88.3998C361.79 88.378 363.164 88.1791 364.496 87.8078L372.544 95.8558C371.029 98.396 369.882 101.138 369.136 104H357.776C356.015 100.95 353.297 98.5656 350.043 97.2178C346.789 95.8699 343.181 95.6334 339.779 96.545C336.376 97.4566 333.37 99.4654 331.226 102.26C329.082 105.054 327.92 108.478 327.92 112C327.92 115.522 329.082 118.946 331.226 121.74C333.37 124.534 336.376 126.543 339.779 127.455C343.181 128.366 346.789 128.13 350.043 126.782C353.297 125.434 356.015 123.05 357.776 120ZM400 95.9998C403.164 95.9998 406.258 96.9382 408.889 98.6963C411.52 100.454 413.571 102.953 414.782 105.877C415.993 108.801 416.31 112.018 415.693 115.121C415.075 118.225 413.551 121.076 411.314 123.314C409.076 125.551 406.225 127.075 403.121 127.692C400.018 128.31 396.801 127.993 393.877 126.782C390.953 125.571 388.455 123.52 386.696 120.889C384.938 118.258 384 115.164 384 112C384 107.756 385.686 103.687 388.686 100.686C391.687 97.6856 395.757 95.9998 400 95.9998Z" fill="#ABABAB"/>
<path d="M360 280H368C370.122 280 372.157 279.157 373.657 277.657C375.157 276.157 376 274.122 376 272C376 269.878 375.157 267.843 373.657 266.343C372.157 264.843 370.122 264 368 264H360C357.878 264 355.843 264.843 354.343 266.343C352.843 267.843 352 269.878 352 272C352 274.122 352.843 276.157 354.343 277.657C355.843 279.157 357.878 280 360 280Z" fill="#ABABAB"/>
<path d="M392 280H432C434.122 280 436.157 279.157 437.657 277.657C439.157 276.157 440 274.122 440 272C440 269.878 439.157 267.843 437.657 266.343C436.157 264.843 434.122 264 432 264H392C389.878 264 387.843 264.843 386.343 266.343C384.843 267.843 384 269.878 384 272C384 274.122 384.843 276.157 386.343 277.657C387.843 279.157 389.878 280 392 280Z" fill="#ABABAB"/>
<path d="M360 312H368C370.122 312 372.157 311.157 373.657 309.657C375.157 308.157 376 306.122 376 304C376 301.878 375.157 299.843 373.657 298.343C372.157 296.843 370.122 296 368 296H360C357.878 296 355.843 296.843 354.343 298.343C352.843 299.843 352 301.878 352 304C352 306.122 352.843 308.157 354.343 309.657C355.843 311.157 357.878 312 360 312Z" fill="#ABABAB"/>
<path d="M392 312H432C434.122 312 436.157 311.157 437.657 309.657C439.157 308.157 440 306.122 440 304C440 301.878 439.157 299.843 437.657 298.343C436.157 296.843 434.122 296 432 296H392C389.878 296 387.843 296.843 386.343 298.343C384.843 299.843 384 301.878 384 304C384 306.122 384.843 308.157 386.343 309.657C387.843 311.157 389.878 312 392 312Z" fill="#ABABAB"/>
<path d="M320 312H80C77.8783 312 75.8434 311.157 74.3431 309.657C72.8429 308.157 72 306.122 72 304V144C72 141.878 72.8429 139.843 74.3431 138.343C75.8434 136.843 77.8783 136 80 136C82.1217 136 84.1566 136.843 85.6569 138.343C87.1571 139.843 88 141.878 88 144V296H320C322.122 296 324.157 296.843 325.657 298.343C327.157 299.843 328 301.878 328 304C328 306.122 327.157 308.157 325.657 309.657C324.157 311.157 322.122 312 320 312Z" fill="#A1A1A1"/>
<path d="M144 256C144.001 253.369 143.352 250.778 142.112 248.457C140.872 246.136 139.079 244.156 136.891 242.694C134.703 241.232 132.188 240.332 129.57 240.074C126.951 239.816 124.309 240.207 121.878 241.214C119.446 242.221 117.301 243.812 115.632 245.846C113.962 247.881 112.82 250.295 112.307 252.876C111.794 255.457 111.925 258.125 112.689 260.643C113.454 263.161 114.827 265.452 116.688 267.312C118.926 269.549 121.776 271.072 124.879 271.689C127.983 272.306 131.199 271.99 134.122 270.779C137.046 269.568 139.544 267.518 141.302 264.887C143.061 262.257 143.999 259.164 144 256Z" fill="#ABABAB"/>
<path d="M216 248C224.837 248 232 240.837 232 232C232 223.163 224.837 216 216 216C207.163 216 200 223.163 200 232C200 240.837 207.163 248 216 248Z" fill="#ABABAB"/>
<path d="M272 176C280.837 176 288 168.837 288 160C288 151.163 280.837 144 272 144C263.163 144 256 151.163 256 160C256 168.837 263.163 176 272 176Z" fill="#ABABAB"/>
</svg>
