<svg width="512" height="512" viewBox="0 0 512 512" fill="none" xmlns="http://www.w3.org/2000/svg">
<g style="mix-blend-mode:luminosity">
<path d="M425.319 399.3H86.6813V215.756C86.6813 122.64 162.167 47.1545 255.283 47.1545H256.716C349.832 47.1545 425.318 122.64 425.318 215.756V399.3H425.319Z" fill="#ACABAB"/>
<path d="M256.717 47.1536H255.284C250.396 47.1536 245.56 47.3738 240.778 47.7818C327.101 55.1395 394.873 127.527 394.873 215.756V399.3H425.319V215.755C425.319 122.64 349.833 47.1536 256.717 47.1536Z" fill="#C6C6C6"/>
<path d="M204.405 399.3V233.615C204.405 205.518 227.263 182.661 255.359 182.661H256.641C284.737 182.661 307.595 205.518 307.595 233.615V399.3H204.405Z" fill="#838383"/>
<path d="M256.641 182.661H255.359C250.292 182.661 245.4 183.415 240.778 184.798C261.789 191.086 277.15 210.586 277.15 233.615V399.3H307.596V233.615C307.595 205.518 284.737 182.661 256.641 182.661Z" fill="#8A8A8A"/>
<path d="M483.091 512H28.9103C19.5777 512 13.3078 502.443 17.0385 493.903L59.5307 396.61C64.199 385.921 74.8246 379.002 86.5726 379.002H425.429C437.177 379.002 447.803 385.921 452.471 396.61L494.964 493.903C498.692 502.444 492.423 512 483.091 512Z" fill="#B7B7B7"/>
<path d="M494.963 493.903L452.47 396.61C447.802 385.921 437.176 379.002 425.428 379.002H394.983C406.731 379.002 417.356 385.922 422.025 396.61L464.517 493.903C468.246 502.444 461.978 512 452.645 512H483.091C492.423 512 498.692 502.444 494.963 493.903Z" fill="#9F9F9F"/>
<path d="M373.229 222.654C369.025 222.654 365.618 219.247 365.618 215.043C365.618 155.145 316.444 106.415 255.999 106.415C251.796 106.415 248.388 103.008 248.388 98.8038C248.388 94.5993 251.796 91.1924 255.999 91.1924C324.837 91.1924 380.84 146.752 380.84 215.043C380.84 219.247 377.433 222.654 373.229 222.654Z" fill="white"/>
<path d="M32.5862 11.8454C29.6106 8.87494 24.791 8.88001 21.8226 11.8546C18.8521 14.8301 18.8561 19.6487 21.8317 22.6182L83.9147 84.5987C85.4005 86.0825 87.346 86.8233 89.2925 86.8233C91.242 86.8233 93.1926 86.0784 94.6794 84.5896C97.6499 81.614 97.6458 76.7955 94.6702 73.826L32.5862 11.8454Z" fill="#C0C0C0"/>
<path d="M109.262 4.9384C107.783 1.00378 103.392 -0.992447 99.4604 0.490263C95.5247 1.9679 93.5336 6.35615 95.0112 10.2918L111.067 53.0357C112.214 56.0894 115.114 57.9719 118.194 57.9719C119.083 57.9719 119.988 57.8157 120.869 57.4848C124.804 56.0062 126.796 51.6179 125.318 47.6823L109.262 4.9384Z" fill="#C0C0C0"/>
<path d="M67.8394 104.663L22.8821 88.0991C18.9363 86.6418 14.5622 88.6664 13.109 92.6092C11.6557 96.5539 13.6753 100.929 17.62 102.382L62.5773 118.946C63.445 119.265 64.334 119.418 65.2078 119.418C68.3062 119.418 71.2168 117.512 72.3514 114.436C73.8037 110.491 71.7841 106.116 67.8394 104.663Z" fill="#C0C0C0"/>
<path d="M490.178 11.8546C487.208 8.87801 482.388 8.87497 479.415 11.8455L417.331 73.826C414.355 76.7965 414.351 81.6151 417.322 84.5896C418.808 86.0794 420.758 86.8233 422.709 86.8233C424.654 86.8233 426.601 86.0825 428.086 84.5988L490.17 22.6192C493.145 19.6487 493.149 14.8302 490.178 11.8546Z" fill="#C0C0C0"/>
<path d="M412.54 0.49037C408.607 -0.989296 404.217 1.00287 402.738 4.9385L386.682 47.6824C385.203 51.618 387.196 56.0063 391.131 57.4849C392.013 57.8158 392.917 57.972 393.806 57.972C396.886 57.972 399.786 56.0895 400.933 53.0358L416.989 10.2919C418.467 6.35626 416.475 1.96801 412.54 0.49037Z" fill="#C0C0C0"/>
<path d="M498.892 92.609C497.438 88.6633 493.064 86.6417 489.119 88.099L444.162 104.663C440.217 106.116 438.197 110.491 439.651 114.436C440.784 117.513 443.695 119.418 446.794 119.418C447.668 119.418 448.557 119.266 449.425 118.946L494.382 102.382C498.326 100.93 500.345 96.5538 498.892 92.609Z" fill="#C0C0C0"/>
</g>
</svg>
