<svg width="512" height="512" viewBox="0 0 512 512" fill="none" xmlns="http://www.w3.org/2000/svg">
<g style="mix-blend-mode:luminosity">
<path d="M288 55.9999C288.001 50.3826 286.523 44.8639 283.715 39.9988C280.907 35.1336 276.868 31.0933 272.003 28.2841C267.139 25.4749 261.62 23.9956 256.003 23.9951C250.386 23.9946 244.867 25.4728 240.002 28.2811C235.137 31.0894 231.097 35.1289 228.288 39.9936C225.479 44.8582 224 50.3765 224 55.9939C224 61.6113 225.478 67.1298 228.287 71.9946C231.095 76.8594 235.135 80.8992 240 83.7079V136H272V83.7079C276.865 80.9015 280.906 76.863 283.715 71.9989C286.523 67.1348 288.001 61.6167 288 55.9999Z" fill="#BFBFBF"/>
<path d="M224 456C223.999 461.617 225.477 467.136 228.285 472.001C231.093 476.866 235.132 480.907 239.997 483.716C244.861 486.525 250.38 488.004 255.997 488.005C261.614 488.005 267.133 486.527 271.998 483.719C276.863 480.911 280.903 476.871 283.712 472.006C286.521 467.142 288 461.623 288 456.006C288 450.389 286.522 444.87 283.713 440.005C280.905 435.14 276.865 431.101 272 428.292V376H240V428.292C235.135 431.098 231.094 435.137 228.285 440.001C225.477 444.865 223.999 450.383 224 456Z" fill="#BFBFBF"/>
<path d="M98.8 128.287C93.9354 125.478 88.4171 123.999 82.7998 123.999C77.1825 123.999 71.6641 125.477 66.7993 128.286C61.9345 131.094 57.8947 135.134 55.086 139.999C52.2773 144.863 50.7986 150.382 50.7986 155.999C50.7986 161.616 52.2773 167.135 55.086 171.999C57.8947 176.864 61.9345 180.904 66.7993 183.712C71.6641 186.521 77.1825 187.999 82.7998 187.999C88.4171 187.999 93.9354 186.52 98.8 183.711L144.086 209.856L160.086 182.144L114.791 156C114.794 150.383 113.318 144.865 110.511 140C107.704 135.135 103.664 131.095 98.8 128.287Z" fill="#BFBFBF"/>
<path d="M413.205 383.713C418.07 386.522 423.588 388.001 429.205 388.001C434.823 388.001 440.341 386.523 445.206 383.714C450.071 380.906 454.11 376.866 456.919 372.001C459.728 367.137 461.206 361.618 461.206 356.001C461.206 350.384 459.728 344.865 456.919 340.001C454.11 335.136 450.071 331.096 445.206 328.288C440.341 325.479 434.823 324.001 429.205 324.001C423.588 324.001 418.07 325.48 413.205 328.289L367.919 302.144L351.919 329.856L397.209 356C397.206 361.617 398.683 367.136 401.491 372.001C404.3 376.866 408.34 380.906 413.205 383.713Z" fill="#BFBFBF"/>
<path d="M66.8 328.287C61.9355 331.096 57.8959 335.135 55.0873 340C52.2787 344.864 50.8001 350.382 50.8 355.999C50.7999 361.616 52.2783 367.135 55.0868 371.999C57.8952 376.864 61.9346 380.903 66.799 383.712C71.6635 386.521 77.1815 388 82.7986 388C88.4157 388 93.9339 386.522 98.7986 383.713C103.663 380.905 107.703 376.866 110.512 372.001C113.321 367.137 114.8 361.619 114.8 356.002L160.086 329.856L144.086 302.144L98.791 328.289C93.9283 325.48 88.4116 324.001 82.7958 324C77.1799 324 71.663 325.478 66.8 328.287Z" fill="#BFBFBF"/>
<path d="M445.205 183.713C450.07 180.904 454.109 176.865 456.918 172C459.726 167.136 461.205 161.618 461.205 156.001C461.205 150.383 459.727 144.865 456.918 140.001C454.11 135.136 450.07 131.096 445.206 128.288C440.341 125.479 434.823 124 429.206 124C423.589 124 418.071 125.478 413.206 128.286C408.342 131.095 404.302 135.134 401.493 139.998C398.684 144.863 397.205 150.381 397.205 155.998L351.919 182.144L367.919 209.856L413.205 183.711C418.069 186.522 423.587 188.002 429.205 188.002C434.822 188.002 440.341 186.523 445.205 183.713Z" fill="#BFBFBF"/>
<path d="M488 256C487.999 263.043 485.674 269.89 481.386 275.477C477.098 281.065 471.086 285.082 464.283 286.905C457.479 288.728 450.264 288.255 443.757 285.561C437.249 282.866 431.813 278.099 428.29 272H391.06C388.898 290.33 383.024 308.026 373.797 324.011C364.569 339.995 352.182 353.932 337.39 364.97L356 397.21C363.044 397.209 369.892 399.533 375.481 403.821C381.07 408.109 385.088 414.122 386.912 420.926C388.736 427.73 388.263 434.946 385.568 441.454C382.872 447.963 378.105 453.4 372.004 456.922C365.904 460.445 358.811 461.856 351.827 460.936C344.843 460.017 338.357 456.819 333.376 451.838C328.395 446.857 325.196 440.371 324.277 433.387C323.357 426.403 324.768 419.311 328.29 413.21L309.69 380.99C292.722 388.254 274.457 392 256 392C237.543 392 219.278 388.254 202.31 380.99L183.71 413.21C187.232 419.311 188.643 426.403 187.723 433.387C186.804 440.371 183.605 446.857 178.624 451.838C173.643 456.819 167.157 460.017 160.173 460.936C153.189 461.856 146.096 460.445 139.996 456.922C133.895 453.4 129.128 447.963 126.432 441.454C123.737 434.946 123.264 427.73 125.088 420.926C126.912 414.122 130.93 408.109 136.519 403.821C142.108 399.533 148.956 397.209 156 397.21L174.61 364.97C157.998 352.545 144.435 336.499 134.95 318.05C127.56 303.663 122.814 288.065 120.94 272H83.71C80.1879 278.101 74.7511 282.868 68.2431 285.564C61.735 288.26 54.5192 288.733 47.715 286.91C40.9107 285.087 34.8982 281.069 30.6099 275.48C26.3216 269.892 23.9972 263.044 23.9972 256C23.9972 248.956 26.3216 242.108 30.6099 236.52C34.8982 230.931 40.9107 226.914 47.715 225.09C54.5192 223.267 61.735 223.74 68.2431 226.436C74.7511 229.132 80.1879 233.9 83.71 240H120.94C123.102 221.671 128.976 203.974 138.203 187.99C147.431 172.005 159.818 158.069 174.61 147.03L156 114.79C148.956 114.791 142.108 112.467 136.519 108.179C130.93 103.891 126.912 97.8786 125.088 91.0743C123.264 84.2701 123.737 77.0542 126.432 70.5458C129.128 64.0375 133.895 58.6005 139.996 55.078C146.096 51.5555 153.189 50.1445 160.173 51.0637C167.157 51.983 173.643 55.1811 178.624 60.1622C183.605 65.1432 186.804 71.6288 187.723 78.6129C188.643 85.597 187.232 92.6894 183.71 98.7901L202.31 131.01C219.278 123.746 237.543 120 256 120C274.457 120 292.722 123.746 309.69 131.01L315.28 121.32L328.29 98.7901C324.768 92.6894 323.357 85.597 324.277 78.6129C325.196 71.6288 328.395 65.1432 333.376 60.1622C338.357 55.1811 344.843 51.983 351.827 51.0637C358.811 50.1445 365.904 51.5555 372.004 55.078C378.105 58.6005 382.872 64.0375 385.568 70.5458C388.263 77.0542 388.736 84.2701 386.912 91.0743C385.088 97.8786 381.07 103.891 375.481 108.179C369.892 112.467 363.044 114.791 356 114.79L337.39 147.03C352.182 158.069 364.569 172.005 373.797 187.99C383.024 203.974 388.898 221.671 391.06 240H428.29C431.813 233.901 437.249 229.134 443.757 226.44C450.264 223.745 457.479 223.272 464.283 225.095C471.086 226.918 477.098 230.935 481.386 236.523C485.674 242.11 487.999 248.957 488 256Z" fill="#ADADAD"/>
<path d="M488 256C487.999 263.043 485.674 269.89 481.386 275.477C477.098 281.065 471.086 285.082 464.283 286.905C457.479 288.728 450.264 288.255 443.757 285.561C437.249 282.866 431.813 278.099 428.29 272H391.06C388.898 290.33 383.024 308.026 373.797 324.011C364.569 339.995 352.182 353.932 337.39 364.97L356 397.21C363.044 397.209 369.892 399.533 375.481 403.821C381.07 408.109 385.088 414.122 386.912 420.926C388.736 427.73 388.263 434.946 385.568 441.454C382.872 447.963 378.105 453.4 372.004 456.922C365.904 460.445 358.811 461.856 351.827 460.936C344.843 460.017 338.357 456.819 333.376 451.838C328.395 446.857 325.196 440.371 324.277 433.387C323.357 426.403 324.768 419.311 328.29 413.21L309.69 380.99C292.722 388.254 274.457 392 256 392C237.543 392 219.278 388.254 202.31 380.99L183.71 413.21C187.232 419.311 188.643 426.403 187.723 433.387C186.804 440.371 183.605 446.857 178.624 451.838C173.643 456.819 167.157 460.017 160.173 460.936C153.189 461.856 146.096 460.445 139.996 456.922C133.896 453.4 129.128 447.963 126.432 441.454C123.737 434.946 123.264 427.73 125.088 420.926C126.912 414.122 130.93 408.109 136.519 403.821C142.108 399.533 148.956 397.209 156 397.21L174.61 364.97C157.998 352.545 144.435 336.499 134.95 318.05C143.237 319.349 151.612 320.001 160 320C184.3 319.986 208.278 314.441 230.117 303.784C251.956 293.127 271.082 277.638 286.046 258.492C301.01 239.346 311.419 217.044 316.484 193.278C321.549 169.511 321.137 144.904 315.28 121.32L328.29 98.7901C324.768 92.6894 323.357 85.597 324.277 78.6129C325.196 71.6288 328.395 65.1432 333.376 60.1622C338.357 55.1811 344.843 51.983 351.827 51.0637C358.811 50.1445 365.904 51.5555 372.004 55.078C378.105 58.6005 382.872 64.0375 385.568 70.5458C388.263 77.0542 388.736 84.2701 386.912 91.0743C385.088 97.8786 381.07 103.891 375.481 108.179C369.892 112.467 363.044 114.791 356 114.79L337.39 147.03C352.182 158.069 364.569 172.005 373.797 187.99C383.024 203.974 388.898 221.671 391.06 240H428.29C431.813 233.901 437.249 229.134 443.757 226.44C450.264 223.745 457.479 223.272 464.283 225.095C471.086 226.918 477.098 230.935 481.386 236.523C485.674 242.11 487.999 248.957 488 256Z" fill="#ADADAD"/>
<path d="M224 256C241.673 256 256 241.673 256 224C256 206.327 241.673 192 224 192C206.327 192 192 206.327 192 224C192 241.673 206.327 256 224 256Z" fill="#BFBFBF"/>
<path d="M320 256C337.673 256 352 241.673 352 224C352 206.327 337.673 192 320 192C302.327 192 288 206.327 288 224C288 241.673 302.327 256 320 256Z" fill="#BFBFBF"/>
<path d="M224 352C241.673 352 256 337.673 256 320C256 302.327 241.673 288 224 288C206.327 288 192 302.327 192 320C192 337.673 206.327 352 224 352Z" fill="#BFBFBF"/>
<path d="M320 352C337.673 352 352 337.673 352 320C352 302.327 337.673 288 320 288C302.327 288 288 302.327 288 320C288 337.673 302.327 352 320 352Z" fill="#BFBFBF"/>
<path d="M208 240C225.673 240 240 225.673 240 208C240 190.327 225.673 176 208 176C190.327 176 176 190.327 176 208C176 225.673 190.327 240 208 240Z" fill="#BFBFBF"/>
<path d="M304 240C321.673 240 336 225.673 336 208C336 190.327 321.673 176 304 176C286.327 176 272 190.327 272 208C272 225.673 286.327 240 304 240Z" fill="#BFBFBF"/>
<path d="M208 336C225.673 336 240 321.673 240 304C240 286.327 225.673 272 208 272C190.327 272 176 286.327 176 304C176 321.673 190.327 336 208 336Z" fill="#BFBFBF"/>
<path d="M304 336C321.673 336 336 321.673 336 304C336 286.327 321.673 272 304 272C286.327 272 272 286.327 272 304C272 321.673 286.327 336 304 336Z" fill="#BFBFBF"/>
</g>
</svg>
