<svg width="529" height="478" viewBox="0 0 529 478" fill="none" xmlns="http://www.w3.org/2000/svg">
<path d="M429 0H100C44.7715 0 0 44.7715 0 100V378C0 433.228 44.7715 478 100 478H429C484.228 478 529 433.228 529 378V100C529 44.7715 484.228 0 429 0Z" fill="#9B9B9B"/>
<path d="M168.854 142.61C169.356 141.272 174.755 131.625 179.219 142.61C183.683 153.596 183.154 353.151 180.465 360.574C177.776 367.997 174.37 368.188 169.824 360.574C167.952 357.442 167.373 320.21 167.373 277.383C167.373 216.119 168.561 143.4 168.854 142.61ZM214.395 179.789C214.898 178.865 220.296 172.218 224.762 179.789C229.228 187.359 228.695 324.716 226.005 329.824C223.316 334.933 219.91 335.065 215.364 329.824C213.493 327.661 212.913 302.038 212.913 272.557C212.913 230.39 214.102 180.331 214.395 179.789ZM258.232 164.865C258.734 163.803 264.133 156.155 268.597 164.865C273.061 173.575 272.532 331.775 269.843 337.658C267.153 343.541 263.745 343.693 259.202 337.658C257.33 335.175 256.75 305.647 256.75 271.705C256.746 223.133 257.933 165.483 258.228 164.858L258.232 164.865ZM305.73 209.777C306.183 209.221 311.084 205.235 315.115 209.777C319.147 214.319 318.677 296.808 316.243 299.877C313.809 302.946 310.723 303.022 306.605 299.877C304.919 298.579 304.386 283.201 304.386 265.504C304.394 240.185 305.469 210.104 305.73 209.777ZM348.818 233.63C350.05 233.012 351.403 232.691 352.774 232.691C354.146 232.691 355.499 233.012 356.731 233.63C360.131 235.686 359.735 273.072 357.682 274.463C355.629 275.854 353.028 275.888 349.557 274.463C348.128 273.877 347.686 266.893 347.686 258.875C347.652 250.445 348.032 242.018 348.824 233.627L348.818 233.63Z" fill="#E2E2E2"/>
</svg>
