<svg width="68" height="65" viewBox="0 0 68 65" fill="none" xmlns="http://www.w3.org/2000/svg">
<g filter="url(#filter0_d)">
<path d="M43.2692 26.728C43.2692 29.656 42.5972 32.344 41.2532 34.792C39.9092 37.192 37.8452 39.136 35.0612 40.624C32.2772 42.112 28.8212 42.856 24.6932 42.856H17.0612V61H4.74916V10.456H24.6932C28.7252 10.456 32.1332 11.152 34.9172 12.544C37.7012 13.936 39.7892 15.856 41.1812 18.304C42.5732 20.752 43.2692 23.56 43.2692 26.728ZM23.7572 33.064C26.1092 33.064 27.8612 32.512 29.0132 31.408C30.1652 30.304 30.7412 28.744 30.7412 26.728C30.7412 24.712 30.1652 23.152 29.0132 22.048C27.8612 20.944 26.1092 20.392 23.7572 20.392H17.0612V33.064H23.7572ZM63.1188 54.04V61H58.9428C55.9668 61 53.6468 60.28 51.9828 58.84C50.3188 57.368 49.4868 54.984 49.4868 51.688V41.032H46.2228V34.216H49.4868V27.688H57.6948V34.216H63.0708V41.032H57.6948V51.784C57.6948 52.584 57.8868 53.16 58.2708 53.512C58.6548 53.864 59.2948 54.04 60.1908 54.04H63.1188Z" fill="url(#paint0_linear)"/>
</g>
<defs>
<filter id="filter0_d" x="0.749161" y="6.456" width="66.3697" height="58.544" filterUnits="userSpaceOnUse" color-interpolation-filters="sRGB">
<feFlood flood-opacity="0" result="BackgroundImageFix"/>
<feColorMatrix in="SourceAlpha" type="matrix" values="0 0 0 0 0 0 0 0 0 0 0 0 0 0 0 0 0 0 127 0"/>
<feOffset/>
<feGaussianBlur stdDeviation="2"/>
<feColorMatrix type="matrix" values="0 0 0 0 0 0 0 0 0 0 0 0 0 0 0 0 0 0 0.25 0"/>
<feBlend mode="normal" in2="BackgroundImageFix" result="effect1_dropShadow"/>
<feBlend mode="normal" in="SourceGraphic" in2="effect1_dropShadow" result="shape"/>
</filter>
<linearGradient id="paint0_linear" x1="4.17857" y1="21.5533" x2="43.7557" y2="59.6779" gradientUnits="userSpaceOnUse">
<stop stop-color="#FF8800"/>
<stop offset="1" stop-color="#FFBB6C"/>
</linearGradient>
</defs>
</svg>
