<svg width="134" height="89" viewBox="0 0 134 89" fill="none" xmlns="http://www.w3.org/2000/svg">
<g filter="url(#filter0_d)">
<g filter="url(#filter1_d)">
<path d="M71.216 36.304V42.88H62.288V70H54.08V42.88H45.152V36.304H71.216ZM86.4714 63.088C86.4714 63.472 86.4474 63.872 86.3994 64.288H77.1114C77.1754 65.12 77.4394 65.76 77.9034 66.208C78.3834 66.64 78.9674 66.856 79.6554 66.856C80.6794 66.856 81.3914 66.424 81.7914 65.56H86.1594C85.9354 66.44 85.5274 67.232 84.9354 67.936C84.3594 68.64 83.6314 69.192 82.7514 69.592C81.8714 69.992 80.8874 70.192 79.7994 70.192C78.4874 70.192 77.3194 69.912 76.2954 69.352C75.2714 68.792 74.4714 67.992 73.8954 66.952C73.3194 65.912 73.0314 64.696 73.0314 63.304C73.0314 61.912 73.3114 60.696 73.8714 59.656C74.4474 58.616 75.2474 57.816 76.2714 57.256C77.2954 56.696 78.4714 56.416 79.7994 56.416C81.0954 56.416 82.2474 56.688 83.2554 57.232C84.2634 57.776 85.0474 58.552 85.6074 59.56C86.1834 60.568 86.4714 61.744 86.4714 63.088ZM82.2714 62.008C82.2714 61.304 82.0314 60.744 81.5514 60.328C81.0714 59.912 80.4714 59.704 79.7514 59.704C79.0634 59.704 78.4794 59.904 77.9994 60.304C77.5354 60.704 77.2474 61.272 77.1354 62.008H82.2714ZM87.8204 63.304C87.8204 61.912 88.1004 60.696 88.6604 59.656C89.2364 58.616 90.0284 57.816 91.0364 57.256C92.0604 56.696 93.2284 56.416 94.5404 56.416C96.2204 56.416 97.6204 56.856 98.7404 57.736C99.8764 58.616 100.62 59.856 100.972 61.456H96.6044C96.2364 60.432 95.5244 59.92 94.4684 59.92C93.7164 59.92 93.1164 60.216 92.6684 60.808C92.2204 61.384 91.9964 62.216 91.9964 63.304C91.9964 64.392 92.2204 65.232 92.6684 65.824C93.1164 66.4 93.7164 66.688 94.4684 66.688C95.5244 66.688 96.2364 66.176 96.6044 65.152H100.972C100.62 66.72 99.8764 67.952 98.7404 68.848C97.6044 69.744 96.2044 70.192 94.5404 70.192C93.2284 70.192 92.0604 69.912 91.0364 69.352C90.0284 68.792 89.2364 67.992 88.6604 66.952C88.1004 65.912 87.8204 64.696 87.8204 63.304ZM111.4 56.464C112.936 56.464 114.168 56.976 115.096 58C116.024 59.008 116.488 60.4 116.488 62.176V70H112.408V62.728C112.408 61.832 112.176 61.136 111.712 60.64C111.248 60.144 110.624 59.896 109.84 59.896C109.056 59.896 108.432 60.144 107.968 60.64C107.504 61.136 107.272 61.832 107.272 62.728V70H103.168V52.24H107.272V58.408C107.688 57.816 108.256 57.344 108.976 56.992C109.696 56.64 110.504 56.464 111.4 56.464ZM121.26 70.192C120.54 70.192 119.948 69.984 119.484 69.568C119.036 69.136 118.812 68.608 118.812 67.984C118.812 67.344 119.036 66.808 119.484 66.376C119.948 65.944 120.54 65.728 121.26 65.728C121.964 65.728 122.54 65.944 122.988 66.376C123.452 66.808 123.684 67.344 123.684 67.984C123.684 68.608 123.452 69.136 122.988 69.568C122.54 69.984 121.964 70.192 121.26 70.192Z" fill="black"/>
</g>
<g filter="url(#filter2_d)">
<path d="M35.656 30.152C35.656 32.104 35.208 33.896 34.312 35.528C33.416 37.128 32.04 38.424 30.184 39.416C28.328 40.408 26.024 40.904 23.272 40.904H18.184V53H9.976V19.304H23.272C25.96 19.304 28.232 19.768 30.088 20.696C31.944 21.624 33.336 22.904 34.264 24.536C35.192 26.168 35.656 28.04 35.656 30.152ZM22.648 34.376C24.216 34.376 25.384 34.008 26.152 33.272C26.92 32.536 27.304 31.496 27.304 30.152C27.304 28.808 26.92 27.768 26.152 27.032C25.384 26.296 24.216 25.928 22.648 25.928H18.184V34.376H22.648ZM40.3611 53.192C39.6411 53.192 39.0491 52.984 38.5851 52.568C38.1371 52.136 37.9131 51.608 37.9131 50.984C37.9131 50.344 38.1371 49.808 38.5851 49.376C39.0491 48.944 39.6411 48.728 40.3611 48.728C41.0651 48.728 41.6411 48.944 42.0891 49.376C42.5531 49.808 42.7851 50.344 42.7851 50.984C42.7851 51.608 42.5531 52.136 42.0891 52.568C41.6411 52.984 41.0651 53.192 40.3611 53.192Z" fill="#FF8800"/>
</g>
</g>
<defs>
<filter id="filter0_d" x="5.976" y="15.304" width="121.708" height="58.888" filterUnits="userSpaceOnUse" color-interpolation-filters="sRGB">
<feFlood flood-opacity="0" result="BackgroundImageFix"/>
<feColorMatrix in="SourceAlpha" type="matrix" values="0 0 0 0 0 0 0 0 0 0 0 0 0 0 0 0 0 0 127 0"/>
<feOffset/>
<feGaussianBlur stdDeviation="2"/>
<feColorMatrix type="matrix" values="0 0 0 0 0 0 0 0 0 0 0 0 0 0 0 0 0 0 0.25 0"/>
<feBlend mode="normal" in2="BackgroundImageFix" result="effect1_dropShadow"/>
<feBlend mode="normal" in="SourceGraphic" in2="effect1_dropShadow" result="shape"/>
</filter>
<filter id="filter1_d" x="35.152" y="26.304" width="98.5316" height="53.888" filterUnits="userSpaceOnUse" color-interpolation-filters="sRGB">
<feFlood flood-opacity="0" result="BackgroundImageFix"/>
<feColorMatrix in="SourceAlpha" type="matrix" values="0 0 0 0 0 0 0 0 0 0 0 0 0 0 0 0 0 0 127 0"/>
<feOffset/>
<feGaussianBlur stdDeviation="5"/>
<feColorMatrix type="matrix" values="0 0 0 0 0 0 0 0 0 0 0 0 0 0 0 0 0 0 0.41 0"/>
<feBlend mode="normal" in2="BackgroundImageFix" result="effect1_dropShadow"/>
<feBlend mode="normal" in="SourceGraphic" in2="effect1_dropShadow" result="shape"/>
</filter>
<filter id="filter2_d" x="0.975998" y="10.304" width="50.8091" height="51.888" filterUnits="userSpaceOnUse" color-interpolation-filters="sRGB">
<feFlood flood-opacity="0" result="BackgroundImageFix"/>
<feColorMatrix in="SourceAlpha" type="matrix" values="0 0 0 0 0 0 0 0 0 0 0 0 0 0 0 0 0 0 127 0"/>
<feOffset/>
<feGaussianBlur stdDeviation="4.5"/>
<feColorMatrix type="matrix" values="0 0 0 0 0 0 0 0 0 0 0 0 0 0 0 0 0 0 0.19 0"/>
<feBlend mode="normal" in2="BackgroundImageFix" result="effect1_dropShadow"/>
<feBlend mode="normal" in="SourceGraphic" in2="effect1_dropShadow" result="shape"/>
</filter>
</defs>
</svg>
