<svg width="512" height="512" viewBox="0 0 512 512" fill="none" xmlns="http://www.w3.org/2000/svg">
<path d="M420.841 184.138L300.841 297.861L256 469.113C281.911 486.056 312.797 496 346 496C436.981 496 512 421.981 512 331C512 266.974 474.269 211.48 420.841 184.138Z" fill="#25D9F8"/>
<path d="M241.159 297.862L91.159 184.139C37.731 211.48 0 266.974 0 331C0 421.981 75.019 496 166 496C199.203 496 230.089 486.056 256 469.113L241.159 297.862Z" fill="#FF641A"/>
<path d="M421 181C421 182.199 421 183.1 420.7 183.999L256 252.999L91.3 183.999C91 183.1 91 182.199 91 181C91 90.099 165.099 16 256 16C346.901 16 421 90.099 421 181Z" fill="#FFDA2D"/>
<path d="M421 181C421 182.199 421 183.1 420.7 183.999L256 252.999V16C346.901 16 421 90.099 421 181Z" fill="#FDBF00"/>
<path d="M346 166C312.797 166 281.911 175.944 256 192.887L330.841 327.861C383.385 300.972 419.653 246.828 420.841 184.138C398.346 172.627 372.955 166 346 166Z" fill="#9CDD05"/>
<path d="M166 166C139.045 166 113.654 172.627 91.159 184.138C92.347 246.828 128.615 300.972 181.159 327.861L256 192.887C230.089 175.944 199.203 166 166 166Z" fill="#FF9100"/>
<path d="M331 331C331 388.9 301 439.6 256 468.999C211 439.6 181 388.9 181 331C181 329.799 181 328.9 181.3 327.999H330.7C331 328.9 331 329.799 331 331Z" fill="#979FEF"/>
<path d="M331 331C331 388.9 301 439.6 256 468.999V327.999H330.7C331 328.9 331 329.799 331 331Z" fill="#737EE6"/>
<path d="M330.7 327.999C308.2 339.399 283.001 346 256 346C228.999 346 203.8 339.399 181.3 327.999C182.199 271.3 211.6 221.8 256 192.999C300.399 221.8 329.801 271.3 330.7 327.999Z" fill="#47568C"/>
<path d="M330.7 327.999C308.2 339.399 283.001 346 256 346V192.999C300.399 221.8 329.801 271.3 330.7 327.999Z" fill="#2C3B73"/>
</svg>
