<svg width="512" height="512" viewBox="0 0 512 512" fill="none" xmlns="http://www.w3.org/2000/svg">
<g clip-path="url(#clip0)">
<path d="M409.6 371.029V503.467H102.4V371.029L243.797 229.717C251.907 230.627 260.093 230.627 268.203 229.717L409.6 371.029Z" fill="#7A7A7A"/>
<path d="M268.203 229.717C260.093 230.627 251.907 230.627 243.797 229.717L243.2 230.315L384 371.029V503.467H409.6V371.029L268.203 229.717Z" fill="#7A7A7A"/>
<path d="M473.259 362.325L443.051 392.448C439.722 395.756 434.347 395.756 431.019 392.448L409.6 371.029L268.203 229.717C290.015 227.313 310.625 218.493 327.424 204.373L375.467 252.416L473.259 350.208C476.587 353.561 476.587 358.971 473.259 362.325Z" fill="#BBBBBB"/>
<path d="M473.259 350.208L375.467 252.416L327.424 204.373C322.711 208.302 317.682 211.835 312.388 214.937L349.867 252.416L447.659 350.208C450.986 353.561 450.986 358.971 447.659 362.325L424.243 385.706L431.019 392.482C434.347 395.79 439.722 395.79 443.051 392.482L473.259 362.359C476.609 359.002 476.609 353.565 473.259 350.208Z" fill="#BBBBBB"/>
<path d="M243.797 229.717L102.4 371.029L80.9813 392.448C77.653 395.756 72.2777 395.756 68.9493 392.448L38.7413 362.325C35.4135 358.971 35.4135 353.561 38.7413 350.208L184.576 204.373C201.375 218.493 221.985 227.313 243.797 229.717Z" fill="#BBBBBB"/>
<path d="M435.2 213.333V312.149L375.467 252.416V213.333C375.467 208.62 379.287 204.8 384 204.8H426.667C431.38 204.8 435.2 208.62 435.2 213.333Z" fill="#BBBBBB"/>
<path d="M426.667 204.8H401.067C405.78 204.8 409.6 208.62 409.6 213.333V286.549L435.2 312.149V213.333C435.2 208.62 431.38 204.8 426.667 204.8Z" fill="#BBBBBB"/>
<path d="M256 418.133C279.564 418.133 298.667 437.236 298.667 460.8V503.467H213.333V460.8C213.333 437.236 232.436 418.133 256 418.133Z" fill="#BBBBBB"/>
<path d="M256 418.133C251.647 418.194 247.33 418.925 243.2 420.301C260.929 425.833 273.019 442.228 273.067 460.8V503.467H298.667V460.8C298.667 437.236 279.564 418.133 256 418.133Z" fill="#BBBBBB"/>
<path d="M366.933 119.467C366.968 176.022 324.419 223.535 268.203 229.717C260.093 230.627 251.907 230.627 243.797 229.717C184.477 223.152 140.983 170.831 145.366 111.31C149.75 51.7886 200.439 6.40318 260.081 8.59887C319.723 10.7946 366.938 59.7843 366.933 119.467Z" fill="#7A7A7A"/>
<path d="M256 8.5332C251.722 8.55129 247.448 8.81626 243.2 9.3268C299.155 15.7776 341.383 63.154 341.383 119.479C341.383 175.805 299.155 223.181 243.2 229.632C243.405 229.632 243.593 229.692 243.797 229.717C251.907 230.627 260.093 230.627 268.203 229.717C326.7 223.198 369.922 172.126 366.68 113.356C363.438 54.5853 314.86 8.57832 256 8.5332Z" fill="#7A7A7A"/>
<path d="M213.333 298.667H298.667V384H213.333V298.667Z" fill="#BBBBBB"/>
<path d="M273.067 298.667H298.667V384H273.067V298.667Z" fill="#BBBBBB"/>
<path d="M119.467 119.467C119.467 114.754 115.646 110.934 110.933 110.934H85.3333C80.6205 110.934 76.8 114.754 76.8 119.467C76.8 124.18 80.6205 128 85.3333 128H110.933C115.646 128 119.467 124.18 119.467 119.467Z" fill="#7A7A7A"/>
<path d="M426.667 110.934H401.067C396.354 110.934 392.533 114.754 392.533 119.467C392.533 124.18 396.354 128 401.067 128H426.667C431.38 128 435.2 124.18 435.2 119.467C435.2 114.754 431.38 110.934 426.667 110.934Z" fill="#7A7A7A"/>
<path d="M126.097 184.61L103.91 197.41C101.248 198.924 99.6015 201.747 99.5947 204.81C99.588 207.872 101.223 210.703 103.878 212.228C106.533 213.753 109.802 213.739 112.444 212.19L134.63 199.39C137.292 197.876 138.939 195.053 138.946 191.991C138.953 188.928 137.318 186.097 134.663 184.572C132.008 183.047 128.739 183.062 126.097 184.61Z" fill="#7A7A7A"/>
<path d="M411.196 29.8668C410.064 27.9046 408.199 26.4729 406.011 25.887C403.823 25.3012 401.491 25.6094 399.531 26.7436L377.344 39.5436C374.682 41.0571 373.035 43.8809 373.028 46.943C373.022 50.0052 374.656 52.8362 377.311 54.3613C379.967 55.8865 383.236 55.872 385.877 54.3233L408.064 41.5233C410.025 40.3931 411.457 38.53 412.045 36.3438C412.632 34.1577 412.327 31.8278 411.196 29.8668Z" fill="#7A7A7A"/>
<path d="M134.63 39.5435L112.444 26.7435C109.802 25.1949 106.533 25.1804 103.878 26.7056C101.223 28.2307 99.588 31.0617 99.5947 34.1239C99.6015 37.186 101.248 40.0098 103.91 41.5233L126.097 54.3233C128.739 55.8719 132.008 55.8864 134.663 54.3613C137.318 52.8361 138.953 50.0051 138.946 46.943C138.939 43.8808 137.292 41.057 134.63 39.5435Z" fill="#7A7A7A"/>
<path d="M424.96 398.507C431.619 405.135 442.382 405.135 449.041 398.507L479.266 368.376C485.916 361.686 485.916 350.882 479.266 344.192L443.733 308.617V213.333C443.733 203.908 436.092 196.267 426.667 196.267H384C374.574 196.267 366.933 203.908 366.933 213.333V231.817L339.695 204.578C374.318 170.587 384.943 119.031 366.582 74.1193C348.221 29.2078 304.52 -0.137695 256 -0.137695C207.48 -0.137695 163.779 29.2078 145.418 74.1193C127.057 119.031 137.682 170.587 172.305 204.578L32.6997 344.175C26.0444 350.866 26.0444 361.676 32.6997 368.367L62.9163 398.507C69.5769 405.147 80.3538 405.147 87.0144 398.507L93.8411 391.68V494.934H59.7333C55.0205 494.934 51.2 498.754 51.2 503.467C51.2 508.18 55.0205 512 59.7333 512H452.267C456.98 512 460.8 508.18 460.8 503.467C460.8 498.754 456.98 494.934 452.267 494.934H418.133V391.68L424.96 398.507ZM384 213.333H426.667V291.55L384 248.883V213.333ZM467.234 356.284L437.052 386.415L415.667 365.039L415.573 364.971L285.628 235.068C300.403 231.274 314.309 224.672 326.588 215.62L467.234 356.284ZM153.6 119.467C153.6 62.9128 199.446 17.0668 256 17.0668C312.554 17.0668 358.4 62.9128 358.4 119.467C358.4 176.021 312.554 221.867 256 221.867C199.471 221.806 153.661 175.995 153.6 119.467ZM74.9739 386.407L44.7744 356.241L185.395 215.62C197.673 224.672 211.58 231.275 226.355 235.068L96.4267 364.928L96.2646 365.09L74.9739 386.407ZM221.867 494.934V460.8C221.867 441.949 237.149 426.667 256 426.667C274.851 426.667 290.133 441.949 290.133 460.8V494.934H221.867ZM401.067 494.934H307.2V460.8C307.2 432.523 284.277 409.6 256 409.6C227.723 409.6 204.8 432.523 204.8 460.8V494.934H110.933V374.613L247.1 238.481C250.052 238.703 252.996 238.933 256 238.933C259.004 238.933 261.973 238.703 264.9 238.481L401.067 374.613V494.934Z" fill="#B4B4B4"/>
<path d="M8.53333 512H25.6C30.3128 512 34.1333 508.18 34.1333 503.467C34.1333 498.754 30.3128 494.934 25.6 494.934H8.53333C3.8205 494.934 0 498.754 0 503.467C0 508.18 3.8205 512 8.53333 512Z" fill="#B4B4B4"/>
<path d="M486.4 512H503.467C508.18 512 512 508.18 512 503.467C512 498.754 508.18 494.934 503.467 494.934H486.4C481.687 494.934 477.867 498.754 477.867 503.467C477.867 508.18 481.687 512 486.4 512Z" fill="#B4B4B4"/>
<path d="M230.4 149.334C230.4 144.621 226.58 140.8 221.867 140.8C217.154 140.8 213.333 144.621 213.333 149.334C214.157 168.462 228.509 184.281 247.467 186.957V187.734C247.467 192.447 251.287 196.267 256 196.267C260.713 196.267 264.533 192.447 264.533 187.734V186.957C283.491 184.281 297.843 168.462 298.667 149.334C297.843 130.205 283.491 114.386 264.533 111.71V69.5811C274.03 71.7355 280.975 79.8828 281.6 89.6003C281.6 94.3132 285.421 98.1337 290.133 98.1337C294.846 98.1337 298.667 94.3132 298.667 89.6003C297.843 70.472 283.491 54.6531 264.533 51.9769V51.2003C264.533 46.4875 260.713 42.667 256 42.667C251.287 42.667 247.467 46.4875 247.467 51.2003V51.9769C228.509 54.6531 214.157 70.472 213.333 89.6003C214.157 108.729 228.509 124.548 247.467 127.224V169.353C237.97 167.199 231.025 159.051 230.4 149.334ZM281.6 149.334C280.975 159.051 274.03 167.199 264.533 169.353V129.314C274.03 131.469 280.975 139.616 281.6 149.334ZM230.4 89.6003C231.025 79.8828 237.97 71.7355 247.467 69.5811V109.62C237.97 107.465 231.025 99.3178 230.4 89.6003Z" fill="#B4B4B4"/>
<path d="M213.333 290.133C208.621 290.133 204.8 293.954 204.8 298.667V384C204.8 388.713 208.621 392.533 213.333 392.533H298.667C303.38 392.533 307.2 388.713 307.2 384V298.667C307.2 293.954 303.38 290.133 298.667 290.133H213.333ZM290.133 332.8H264.533V307.2H290.133V332.8ZM247.467 307.2V332.8H221.867V307.2H247.467ZM221.867 349.867H247.467V375.467H221.867V349.867ZM264.533 375.467V349.867H290.133V375.467H264.533Z" fill="#B4B4B4"/>
<path d="M273.067 477.867C277.78 477.867 281.6 474.046 281.6 469.334C281.6 464.621 277.78 460.8 273.067 460.8C268.354 460.8 264.533 464.621 264.533 469.334C264.533 474.046 268.354 477.867 273.067 477.867Z" fill="#B4B4B4"/>
</g>
<defs>
<clipPath id="clip0">
<rect width="512" height="512" fill="white"/>
</clipPath>
</defs>
</svg>
