<svg width="512" height="512" viewBox="0 0 512 512" fill="none" xmlns="http://www.w3.org/2000/svg">
<g clip-path="url(#clip0)">
<path d="M260.128 0H57.2458C29.821 0 7.58936 22.2317 7.58936 49.6564V355.045C7.58936 382.47 29.821 404.701 57.2458 404.701H260.128C287.553 404.701 309.785 382.47 309.785 355.045V49.6564C309.785 22.2317 287.553 0 260.128 0V0Z" fill="#7A7A7A"/>
<path d="M85.4032 404.702H57.2448C29.82 404.702 7.58936 382.473 7.58936 355.047V49.6564C7.58936 22.2316 29.819 0.000976562 57.2448 0.000976562H85.4032C57.9865 0.000976562 35.7478 22.2306 35.7478 49.6564V355.047C35.7478 382.473 57.9855 404.702 85.4032 404.702Z" fill="#7A7A7A"/>
<path d="M277.213 60.8924V343.809C277.213 359.451 264.535 372.13 248.893 372.13H68.4787C52.8444 372.13 40.1581 359.451 40.1581 343.809V60.8924C40.1581 45.2501 52.8444 32.5718 68.4787 32.5718H96.1396V33.9071C96.1396 50.0788 109.249 63.1886 125.421 63.1886H191.957C208.129 63.1886 221.239 50.0788 221.239 33.9071V32.5718H248.892C264.535 32.5718 277.213 45.2501 277.213 60.8924Z" fill="#949494"/>
<path d="M95.5621 372.13H68.4787C52.8444 372.13 40.1581 359.451 40.1581 343.809V60.8924C40.1581 45.2501 52.8444 32.5718 68.4787 32.5718H95.5621C79.9278 32.5718 67.2415 45.2501 67.2415 60.8924V343.809C67.2405 359.451 79.9268 372.13 95.5621 372.13Z" fill="#949494"/>
<path d="M191.181 40.3055H126.193C121.921 40.3055 118.458 36.8431 118.458 32.571C118.458 28.2988 121.921 24.8364 126.193 24.8364H191.181C195.453 24.8364 198.916 28.2988 198.916 32.571C198.916 36.8431 195.453 40.3055 191.181 40.3055Z" fill="#7A7A7A"/>
<path d="M118.03 244.727C116.051 244.727 114.071 243.972 112.561 242.461L79.2442 209.145C77.7938 207.695 76.979 205.728 76.979 203.676C76.979 201.625 77.7938 199.657 79.2442 198.206L112.561 164.89C115.582 161.869 120.478 161.87 123.499 164.89C126.519 167.91 126.519 172.808 123.499 175.828L95.6512 203.675L123.499 231.522C126.519 234.542 126.519 239.44 123.499 242.459C121.989 243.972 120.009 244.727 118.03 244.727Z" fill="#DFDFDF"/>
<path d="M199.345 244.726C197.365 244.726 195.386 243.972 193.876 242.461C190.856 239.441 190.856 234.544 193.876 231.524L221.724 203.676L193.876 175.829C190.856 172.809 190.856 167.912 193.876 164.892C196.897 161.871 201.794 161.871 204.815 164.892L238.131 198.208C239.581 199.659 240.396 201.625 240.396 203.677C240.396 205.728 239.581 207.696 238.131 209.147L204.815 242.463C203.304 243.972 201.324 244.726 199.345 244.726Z" fill="#DFDFDF"/>
<path d="M142.861 269.654C142.257 269.654 141.644 269.583 141.03 269.434C136.88 268.426 134.332 264.245 135.34 260.094L163.613 143.609C164.619 139.458 168.803 136.909 172.954 137.917C177.104 138.925 179.652 143.106 178.644 147.258L150.371 263.742C149.513 267.281 146.348 269.654 142.861 269.654Z" fill="#DFDFDF"/>
<path d="M419.205 289.738L378.027 428.304H268.634L225.333 287.871V287.82H403.591C408.934 287.82 414.162 288.48 419.205 289.738Z" fill="#CFCFCF"/>
<path d="M419.205 289.738L378.027 428.304H362.941L342.893 375.979C328.507 338.443 351.349 296.987 390.773 289.098C395.073 288.232 399.363 287.819 403.591 287.819C408.934 287.82 414.162 288.48 419.205 289.738Z" fill="#CFCFCF"/>
<path d="M240.804 289.096C205.646 282.057 171.44 304.85 164.401 340.006L143.35 445.146C137.291 475.405 156.909 504.846 187.168 510.905C213.886 516.254 240.566 501.553 250.316 476.108L288.68 375.979C303.063 338.443 280.22 296.988 240.804 289.096Z" fill="#DFDFDF"/>
<path d="M210.1 510.696C206.224 511.557 202.219 511.997 198.169 511.997C194.532 511.997 190.857 511.64 187.172 510.907C156.914 504.85 137.296 475.407 143.353 445.15L164.401 340.007C171.384 305.131 205.106 282.423 239.964 288.939C214.709 293.685 193.643 313.268 188.29 340.007L167.242 445.15C161.248 475.087 180.391 504.217 210.1 510.696Z" fill="#CFCFCF"/>
<path d="M405.857 289.096C441.015 282.057 475.221 304.85 482.26 340.006L503.311 445.146C509.37 475.405 489.752 504.846 459.493 510.905C432.775 516.254 406.095 501.553 396.345 476.108L357.981 375.979C343.598 338.443 366.441 296.988 405.857 289.096Z" fill="#DFDFDF"/>
<path d="M460.527 510.691C460.186 510.763 459.836 510.835 459.485 510.907C455.803 511.65 452.122 512 448.482 512C425.744 512 404.747 498.047 396.343 476.113L357.982 375.98C343.596 338.444 366.438 296.988 405.851 289.099C414.298 287.407 422.681 287.438 430.653 288.955C430.384 288.996 430.127 289.048 429.859 289.099C390.445 296.987 367.603 338.443 381.979 375.98L420.352 476.113C427.248 494.129 442.645 506.762 460.527 510.691Z" fill="#CFCFCF"/>
<path d="M244.155 342.261H238.405V336.511C238.405 328.147 231.625 321.365 223.26 321.365C214.894 321.365 208.114 328.146 208.114 336.511V342.261H202.364C194 342.261 187.218 349.041 187.218 357.406C187.218 365.771 193.999 372.552 202.364 372.552H208.114V378.302C208.114 386.666 214.894 393.447 223.26 393.447C231.625 393.447 238.405 386.667 238.405 378.302V372.552H244.155C252.519 372.552 259.301 365.772 259.301 357.406C259.301 349.042 252.519 342.261 244.155 342.261Z" fill="#7A7A7A"/>
<path d="M228.932 392.346C227.181 393.052 225.267 393.446 223.26 393.446C214.893 393.446 208.122 386.666 208.122 378.299V372.544H202.367C198.188 372.544 194.395 370.848 191.655 368.109C188.915 365.369 187.219 361.593 187.219 357.405C187.219 349.039 194 342.258 202.367 342.258H208.122V336.503C208.122 328.146 214.893 321.365 223.26 321.365C225.267 321.365 227.181 321.76 228.932 322.465C223.379 324.701 219.457 330.145 219.457 336.504V342.259H213.702C205.336 342.259 198.554 349.039 198.554 357.406C198.554 361.594 200.25 365.369 202.99 368.11C205.729 370.849 209.514 372.545 213.702 372.545H219.457V378.3C219.457 384.659 223.379 390.102 228.932 392.346Z" fill="#7A7A7A"/>
<path d="M437.705 351.657C446.069 351.657 452.85 344.876 452.85 336.511C452.85 328.146 446.069 321.365 437.705 321.365C429.34 321.365 422.559 328.146 422.559 336.511C422.559 344.876 429.34 351.657 437.705 351.657Z" fill="#C0C0C0"/>
<path d="M396.745 381.948C405.109 381.948 411.89 375.167 411.89 366.803C411.89 358.438 405.109 351.657 396.745 351.657C388.38 351.657 381.599 358.438 381.599 366.803C381.599 375.167 388.38 381.948 396.745 381.948Z" fill="#C0C0C0"/>
<path d="M443.609 350.463C441.795 351.233 439.798 351.654 437.708 351.654C429.341 351.654 422.56 344.874 422.56 336.507C422.56 328.14 429.34 321.359 437.708 321.359C439.797 321.359 441.795 321.78 443.609 322.55C438.175 324.85 434.363 330.239 434.363 336.506C434.363 342.775 438.175 348.163 443.609 350.463Z" fill="#C0C0C0"/>
<path d="M402.648 380.758C400.834 381.527 398.837 381.949 396.747 381.949C388.38 381.949 381.599 375.168 381.599 366.801C381.599 358.434 388.379 351.653 396.747 351.653C398.836 351.653 400.834 352.075 402.648 352.844C397.223 355.145 393.411 360.533 393.411 366.8C393.411 373.069 397.223 378.457 402.648 380.758Z" fill="#C0C0C0"/>
<path d="M332.4 403.911H314.253C308.188 403.911 303.272 398.994 303.272 392.929C303.272 386.864 308.188 381.947 314.253 381.947H332.4C338.465 381.947 343.382 386.864 343.382 392.929C343.382 398.994 338.465 403.911 332.4 403.911Z" fill="#7A7A7A"/>
<path d="M326.803 403.906H314.258C308.192 403.906 303.272 398.994 303.272 392.929C303.272 389.896 304.5 387.146 306.488 385.158C308.477 383.169 311.225 381.942 314.258 381.942H326.803C323.77 381.942 321.021 383.17 319.033 385.158C317.044 387.147 315.817 389.896 315.817 392.929C315.817 398.994 320.738 403.906 326.803 403.906Z" fill="#7A7A7A"/>
</g>
<defs>
<clipPath id="clip0">
<rect width="512" height="512" fill="white"/>
</clipPath>
</defs>
</svg>
